<svg width="270" height="540" viewBox="0 0 270 540" fill="none" xmlns="http://www.w3.org/2000/svg">
    <g clip-path="url(#clip0_107_1123)">
        <path d="M185.099 34.7212C182.898 30.8671 177.509 29.9434 174.958 26.3123C172.008 22.1398 173.762 15.7853 170.477 11.8676C168.323 9.73256 165.413 8.53105 162.378 8.52316C159.374 8.52538 156.379 8.19422 153.449 7.53576C148.267 5.94318 144.52 0.942463 139.226 -0.220123C136.373 -0.699201 133.442 -0.131169 130.974 1.37917C128.507 2.8895 126.669 5.24023 125.801 7.99761C125.492 9.03138 125.331 10.1038 125.323 11.1828C123.966 11.183 122.624 11.4665 121.383 12.015C120.142 12.5635 119.029 13.3649 118.116 14.3679C116.203 16.5179 115.326 19.4324 113.333 21.5346C111.34 23.6368 108.247 24.9268 106.588 27.4271C105.735 28.8364 105.192 30.4107 104.994 32.0456C104.101 37.3967 104.611 43.2893 107.96 47.5574C111.308 51.8255 118.02 53.657 122.309 50.4081C122.309 50.4081 152.604 64.7414 158.806 68.5636C161.923 70.4218 165.53 71.2946 169.152 71.0672C172.775 70.8398 176.244 69.5229 179.103 67.2895C179.736 66.8651 180.275 66.3153 180.687 65.6742C181.098 65.0332 181.373 64.3145 181.495 63.5628C181.333 62.0662 180.878 60.616 180.156 59.2947C178.737 55.1859 181.065 50.8222 183.137 46.984C185.21 43.1459 187.251 38.5115 185.099 34.7212Z" fill="#333333"/>
        <path d="M112.392 37.7789C114.72 23.159 129.309 -1.319 155.219 13.7468C163.382 18.5246 166.858 27.1245 168.5 36.043C169.664 42.3019 167.448 100.288 167.448 100.288C165.63 123.062 130.043 126.502 127.747 100.129L128.448 83.7409C109.666 77.7687 109.793 54.2144 112.392 37.7789Z" fill="#F9C4B4"/>
        <path d="M128.448 83.7886C128.448 83.7886 139.051 87.3242 159.061 74.902C151.203 85.4997 140.321 93.4771 127.842 97.7874L128.448 83.7886Z" fill="#333333"/>
        <path d="M181.942 45.5189C181.594 42.8126 180.196 40.3509 178.049 38.6647C175.901 36.9785 173.176 36.2028 170.462 36.5048C169.122 36.6398 167.823 37.0385 166.639 37.678C165.454 38.3175 164.409 39.185 163.562 40.2305C162.716 41.276 162.085 42.4787 161.707 43.7691C161.328 45.0595 161.209 46.412 161.357 47.7485C161.7 50.4554 163.098 52.9182 165.247 54.6026C167.396 56.2871 170.123 57.0574 172.837 56.7466C174.176 56.6136 175.475 56.2167 176.659 55.5789C177.843 54.9411 178.889 54.075 179.736 53.0308C180.582 51.9866 181.213 50.785 181.592 49.4955C181.971 48.2061 182.089 46.8545 181.942 45.5189V45.5189Z" fill="#F9C4B4"/>
        <path d="M173.491 42.2063C172.749 42.4553 172.038 42.7865 171.37 43.1937C170.169 43.9375 169.133 44.9184 168.325 46.0763C167.896 46.7264 167.538 47.4205 167.257 48.1466C166.877 47.3268 166.821 46.3946 167.097 45.5348C167.358 44.6535 167.848 43.8568 168.516 43.2255C169.183 42.6055 169.994 42.162 170.876 41.9356C171.752 41.703 172.682 41.7993 173.491 42.2063V42.2063Z" fill="#251B2D"/>
        <path d="M142.368 33.5745C142.368 34.4823 140.949 35.1671 139.322 35.0237C137.696 34.8804 136.42 34.0682 136.484 33.1604C136.548 32.2527 137.919 31.5678 139.545 31.7112C141.172 31.8545 142.431 32.6667 142.368 33.5745Z" fill="#371C09"/>
        <path d="M123.585 33.0012C123.505 33.9089 122.134 34.5937 120.508 34.3708C118.882 34.1478 117.654 33.3197 117.734 32.4119C117.813 31.5041 119.184 30.8193 120.795 31.0423C122.405 31.2652 123.665 32.0456 123.585 33.0012Z" fill="#371C09"/>
        <g style="mix-blend-mode:soft-light" opacity="0.46">
            <path d="M149.287 68.7706C155.249 68.7706 160.082 63.9434 160.082 57.9888C160.082 52.0342 155.249 47.207 149.287 47.207C143.326 47.207 138.493 52.0342 138.493 57.9888C138.493 63.9434 143.326 68.7706 149.287 68.7706Z" fill="#333333"/>
        </g>
        <path d="M120.014 41.8081C120.014 42.9229 120.412 43.8626 121.05 43.9104C121.688 43.9581 122.294 43.0822 122.357 41.9515C122.421 40.8207 121.975 39.897 121.321 39.8493C120.667 39.8015 120.093 40.6774 120.014 41.8081Z" fill="#333333"/>
        <path fill-rule="evenodd" clip-rule="evenodd" d="M120.248 40.2513C120.507 39.8605 120.887 39.5719 121.339 39.6049C121.787 39.6377 122.123 39.9676 122.328 40.3865C122.536 40.8101 122.636 41.3673 122.602 41.9653C122.568 42.5678 122.389 43.1136 122.122 43.5099C121.859 43.8989 121.476 44.188 121.032 44.1547C120.584 44.1211 120.266 43.7783 120.071 43.3639C119.872 42.9425 119.769 42.391 119.769 41.8081V41.7995L119.769 41.7909C119.811 41.1921 119.985 40.6476 120.248 40.2513ZM120.259 41.8168C120.26 42.3453 120.355 42.8176 120.514 43.1549C120.677 43.5009 120.878 43.6518 121.068 43.666C121.261 43.6805 121.5 43.5555 121.716 43.2358C121.927 42.9234 122.083 42.4659 122.113 41.9377C122.143 41.4049 122.051 40.9349 121.888 40.6021C121.723 40.2645 121.508 40.1086 121.303 40.0936C121.102 40.0789 120.867 40.2043 120.656 40.5222C120.45 40.833 120.297 41.2885 120.259 41.8168Z" fill="#333333"/>
        <path d="M136.66 42.3815C136.66 43.4963 137.042 44.4359 137.696 44.4837C138.35 44.5315 138.94 43.6555 139.003 42.5248C139.067 41.3941 138.621 40.4704 137.967 40.4226C137.313 40.3748 136.723 41.2507 136.66 42.3815Z" fill="#333333"/>
        <path fill-rule="evenodd" clip-rule="evenodd" d="M136.888 40.8238C137.15 40.4327 137.534 40.1453 137.985 40.1783C138.433 40.211 138.769 40.5409 138.974 40.9598C139.182 41.3834 139.282 41.9406 139.248 42.5386C139.214 43.1398 139.04 43.6856 138.774 44.0825C138.513 44.4735 138.129 44.761 137.678 44.728C137.223 44.6948 136.905 44.3529 136.711 43.9363C136.514 43.5144 136.415 42.9629 136.415 42.3815V42.3677L136.415 42.3677C136.449 41.7665 136.623 41.2207 136.888 40.8238ZM136.905 42.3884C136.905 42.919 136.997 43.392 137.155 43.7291C137.315 44.073 137.515 44.2248 137.714 44.2393C137.916 44.2541 138.155 44.1275 138.367 43.8099C138.576 43.4981 138.729 43.0406 138.759 42.511C138.789 41.9783 138.697 41.5083 138.534 41.1754C138.369 40.8378 138.154 40.6819 137.949 40.667C137.747 40.6521 137.508 40.7788 137.296 41.0964C137.088 41.4069 136.935 41.8618 136.905 42.3884Z" fill="#333333"/>
        <g style="mix-blend-mode:soft-light" opacity="0.46">
            <path d="M111.563 44.3881C110.711 51.5676 111.099 58.8398 112.711 65.888C115.454 65.5889 117.978 64.252 119.765 62.1518C121.552 60.0517 122.466 57.3478 122.319 54.5957C122.172 51.8435 120.975 49.2521 118.975 47.3537C116.974 45.4553 114.322 44.3941 111.563 44.3881V44.3881Z" fill="#333333"/>
        </g>
        <path d="M134.507 57.0014C134.206 58.0073 133.625 58.9073 132.833 59.5973C131.994 60.3996 130.885 60.8598 129.724 60.8873C128.526 60.877 127.381 60.3964 126.535 59.5495C125.754 58.8251 125.238 57.8611 125.068 56.8103C125.961 57.3518 126.662 57.8614 127.491 58.2277C128.163 58.5736 128.904 58.7641 129.66 58.7851C130.434 58.7616 131.194 58.5772 131.892 58.2436C132.753 57.9092 133.534 57.4155 134.507 57.0014Z" fill="#333333"/>
        <path d="M128.289 36.473C128.42 38.8794 128.35 41.2925 128.081 43.6874C127.954 44.8659 127.826 46.0603 127.635 47.2389C127.444 48.4174 127.236 49.5959 126.997 50.7744L126.439 49.9781C128.207 50.4537 129.939 51.0551 131.621 51.7777C129.791 51.7683 127.963 51.63 126.152 51.3636H125.53V50.647C125.626 49.4525 125.738 48.274 125.897 47.0796C126.056 45.8852 126.232 44.7226 126.439 43.5441C126.855 41.1392 127.474 38.7737 128.289 36.473V36.473Z" fill="#251B2D"/>
        <path d="M134.507 57.0014C134.206 58.0073 133.625 58.9073 132.833 59.5973C131.994 60.3996 130.885 60.8598 129.724 60.8873C128.526 60.877 127.381 60.3964 126.535 59.5495C125.754 58.8251 125.238 57.8611 125.068 56.8103C125.961 57.3518 126.662 57.8614 127.491 58.2277C128.163 58.5736 128.904 58.7641 129.66 58.7851C130.434 58.7616 131.194 58.5772 131.892 58.2436C132.753 57.9092 133.534 57.4155 134.507 57.0014Z" fill="#333333"/>
        <path d="M170.892 27.9208C169.502 24.3931 167.469 21.1533 164.897 18.3653C162.88 16.5199 160.654 14.9164 158.264 13.5876C156.577 12.5185 154.825 11.5558 153.018 10.705C150.964 9.82732 148.828 9.15515 146.641 8.69835C143.183 7.76816 139.583 7.48204 136.022 7.85428C132.931 8.2565 130.057 9.66081 127.842 11.8517C124.462 14.2704 121.595 17.334 119.408 20.8657C117.973 22.8883 116.569 24.9109 115.166 26.9334C116.069 26.7383 116.942 26.4279 117.765 26.0097C118.979 25.2906 120.103 24.4299 121.114 23.4457C123.942 21.0965 126.181 18.1186 127.651 14.7502C128.509 17.1384 130.209 19.1317 132.434 20.3561C135.28 21.7593 138.455 22.3648 141.618 22.1079C144.249 21.9964 146.991 21.5505 149.463 22.5061C150.694 23.0545 151.803 23.8426 152.726 24.8243C153.648 25.806 154.366 26.9615 154.836 28.2234C155.774 30.7535 156.39 33.3913 156.67 36.0749C156.711 37.2651 157.136 38.4103 157.881 39.3397C158.44 39.8379 159.133 40.1594 159.874 40.2634C163.063 40.8208 166.013 38.9734 168.484 36.9349C169.345 36.3634 170.085 35.6273 170.659 34.769C171.234 33.9107 171.633 32.9472 171.833 31.9341C171.867 30.5381 171.543 29.1566 170.892 27.9208V27.9208Z" fill="#333333"/>
        <path d="M48.8856 169.279C67.5246 142.81 115.613 104.237 115.613 104.237L127.922 114.382L92.4297 189.52C92.4297 189.52 68.7523 234.638 52.4252 235.785C27.2012 237.568 24.666 203.631 48.8856 169.279Z" fill="#F9C4B4"/>
        <g style="mix-blend-mode:soft-light" opacity="0.46">
            <path d="M115.023 140.994L92.8283 123.412L60.0785 155.694L90.8831 190.731L115.023 140.994Z" fill="#333333"/>
        </g>
        <path d="M99.9235 174.295L61.354 143.351C61.354 143.351 106.142 89.729 136.293 101.148L124.733 122.186L99.9235 174.295Z" fill="#BAD2C8"/>
        <path d="M42.5397 142.746L38.8406 144.339C30.5814 147.779 22.3062 151.15 14.0151 154.452C18.5752 182.019 26.6591 214.333 34.8864 226.118C45.1865 240.881 72.7065 226.643 71.415 212.374C71.0323 206.895 51.915 163.673 42.5397 142.746Z" fill="#F9C4B4"/>
        <path d="M48.5348 152.238C44.519 145.429 41.0943 138.29 38.2985 130.897C38.729 129.751 41.4874 116.978 40.1162 113.602C38.1231 108.346 28.684 119.542 28.6362 122.425C28.3492 119.733 25.8778 97.6282 21.8279 97.9945C19.3884 98.2174 20.5524 113.14 20.5524 113.14C20.5524 113.14 13.7282 93.8856 11.7192 94.6501C9.7102 95.4145 15.0037 114.111 15.0037 114.111C15.0037 114.111 8.036 100.16 5.80378 101.18C3.89045 102.04 9.12024 117.01 9.12024 117.01C9.12024 117.01 2.12062 109.158 0.271074 110.13C-1.57848 111.101 5.34139 123.508 6.34589 127.25C7.0315 129.798 10.316 155.439 14.6689 169.358C15.211 169.087 39.3668 157.223 48.5348 152.238Z" fill="#FC9B27"/>
        <path d="M48.5348 152.238C48.5348 152.238 50.2568 153.305 49.7306 154.037C49.2044 154.77 16.072 172.177 15.1312 170.632L14.1746 169.04L48.5348 152.238Z" fill="#FCB970"/>
        <path fill-rule="evenodd" clip-rule="evenodd" d="M52.4324 164.209C52.7078 164.081 53.0349 164.2 53.1631 164.476L61.6774 182.775C61.8055 183.05 61.6861 183.377 61.4107 183.505C61.1353 183.633 60.8082 183.514 60.68 183.239L52.1657 164.94C52.0376 164.664 52.157 164.337 52.4324 164.209Z" fill="#333333"/>
        <path d="M161.692 226.834C155.123 208.806 107.848 220.146 107.848 220.146C107.848 220.146 85.5258 300.46 79.8177 383.433C73.2645 479.848 98.9509 587.555 98.9509 587.555C114.305 590.819 142.128 589.561 142.128 589.561V437.947C142.017 437.613 147.087 340.179 154.294 311.401C164.132 272.175 161.692 226.834 161.692 226.834Z" fill="#3F5B99"/>
        <path d="M202.781 227.902C196.212 209.858 143.229 220.814 143.229 220.814C143.229 220.814 135.814 244.703 134.459 290.124C133.965 306.48 140.103 369.896 139.386 380.423C132.833 476.854 157.148 587.331 157.148 587.331C172.502 590.517 200.326 589.322 200.326 589.322V437.708C200.214 437.374 205.268 339.94 212.475 311.162C222.393 271.889 202.781 227.902 202.781 227.902Z" fill="#435CA1"/>
        <g style="mix-blend-mode:soft-light" opacity="0.46">
            <path d="M182.723 258.654C163.813 256.871 144.456 259.212 125.929 263.161C118.531 264.754 111.228 266.601 103.974 268.672C104.927 271.513 106.57 274.074 108.757 276.125C116.729 283.419 129.182 280.903 139.992 281.412C164.164 282.734 185.035 302.004 209.238 301.511C210.994 301.482 212.744 301.301 214.468 300.969C215.834 289.138 215.485 277.171 213.432 265.439C203.447 262.163 193.16 259.891 182.723 258.654V258.654Z" fill="#333333"/>
        </g>
        <path fill-rule="evenodd" clip-rule="evenodd" d="M185.661 278.581C185.984 278.654 186.187 278.975 186.115 279.298L185.529 279.167L184.944 279.035C185.016 278.712 185.337 278.509 185.661 278.581ZM185.529 279.167C184.944 279.035 184.944 279.035 184.944 279.035L184.941 279.045L184.935 279.073L184.911 279.181C184.891 279.277 184.86 279.418 184.821 279.601C184.744 279.969 184.633 280.507 184.499 281.192C184.231 282.563 183.871 284.523 183.5 286.885C182.759 291.607 181.976 297.943 181.81 304.388C181.645 310.821 182.094 317.414 183.851 322.62C185.609 327.834 188.73 331.782 193.963 332.633C194.29 332.686 194.598 332.464 194.652 332.137C194.705 331.81 194.483 331.501 194.156 331.448C189.543 330.698 186.675 327.237 184.988 322.237C183.299 317.229 182.846 310.804 183.01 304.419C183.173 298.045 183.949 291.763 184.686 287.071C185.054 284.726 185.411 282.781 185.677 281.422C185.81 280.743 185.919 280.211 185.996 279.849C186.034 279.668 186.064 279.53 186.084 279.437L186.107 279.332L186.113 279.306L186.115 279.298C186.115 279.298 186.115 279.298 185.529 279.167Z" fill="#6693B9"/>
        <path fill-rule="evenodd" clip-rule="evenodd" d="M198.394 278.043C198.724 278.068 198.972 278.356 198.947 278.687C198.555 283.829 198.202 288.485 197.881 292.724C194.744 334.083 194.62 335.712 191.466 360.861C188.283 386.425 184.536 479.719 192.535 554.891C192.57 555.22 192.332 555.516 192.002 555.551C191.673 555.586 191.377 555.347 191.342 555.018C183.333 479.754 187.081 386.367 190.275 360.712L190.275 360.712C193.426 335.592 193.548 333.989 196.684 292.631C197.006 288.393 197.359 283.737 197.75 278.596C197.775 278.265 198.064 278.018 198.394 278.043Z" fill="#6693B9"/>
        <path fill-rule="evenodd" clip-rule="evenodd" d="M103.295 272.165C103.626 272.168 103.892 272.44 103.888 272.771L103.288 272.765L102.688 272.758C102.692 272.427 102.963 272.161 103.295 272.165ZM103.288 272.765C102.688 272.758 102.688 272.758 102.688 272.758L102.688 272.766L102.688 272.793L102.686 272.899C102.684 272.992 102.682 273.132 102.678 273.315C102.67 273.68 102.656 274.217 102.632 274.902C102.585 276.272 102.5 278.234 102.347 280.599C102.04 285.329 101.461 291.662 100.374 298.084C99.2865 304.513 97.6953 310.996 95.3771 316.045C93.0445 321.124 90.0595 324.575 86.2782 325.271C85.9523 325.331 85.7368 325.644 85.7968 325.97C85.8568 326.296 86.1696 326.511 86.4955 326.451C90.8857 325.643 94.0991 321.704 96.4676 316.545C98.8505 311.356 100.463 304.753 101.558 298.284C102.653 291.808 103.236 285.431 103.544 280.676C103.698 278.298 103.784 276.324 103.832 274.943C103.855 274.253 103.869 273.711 103.878 273.341C103.882 273.156 103.884 273.014 103.886 272.918L103.887 272.809L103.888 272.771C103.888 272.771 103.888 272.771 103.288 272.765Z" fill="#6693B9"/>
        <path fill-rule="evenodd" clip-rule="evenodd" d="M135.242 267.499C135.573 267.508 135.834 267.785 135.824 268.116L135.224 268.098C135.824 268.116 135.824 268.117 135.824 268.118L135.809 268.635C135.8 268.977 135.786 269.487 135.768 270.153C135.732 271.486 135.681 273.448 135.621 275.96C135.501 280.985 135.344 288.215 135.196 297.033C134.899 314.669 134.638 338.656 134.778 364.064C134.919 389.473 135.461 416.297 136.772 439.607C138.084 462.936 140.163 482.687 143.359 493.986C143.45 494.305 143.264 494.637 142.945 494.727C142.627 494.817 142.295 494.632 142.205 494.313C138.968 482.87 136.885 462.994 135.574 439.674C134.261 416.335 133.719 389.489 133.578 364.071C133.438 338.651 133.699 314.654 133.996 297.013C134.144 288.191 134.302 280.959 134.422 275.932C134.482 273.418 134.532 271.455 134.568 270.121C134.586 269.454 134.6 268.944 134.61 268.601L134.625 268.083C134.625 268.081 134.625 268.081 135.223 268.098L134.625 268.081C134.634 267.749 134.911 267.489 135.242 267.499Z" fill="#6693B9"/>
        <path fill-rule="evenodd" clip-rule="evenodd" d="M146.686 269.57C147.017 269.551 147.301 269.804 147.319 270.135L146.72 270.169C147.319 270.135 147.319 270.134 147.319 270.135L147.322 270.18L147.329 270.314C147.335 270.431 147.344 270.605 147.355 270.831C147.378 271.283 147.408 271.945 147.442 272.785C147.51 274.464 147.59 276.856 147.641 279.707C147.742 285.408 147.725 292.954 147.251 300.317C146.779 307.666 145.848 314.889 144.099 319.916C143.227 322.422 142.125 324.464 140.706 325.684C139.986 326.302 139.177 326.716 138.276 326.86C137.374 327.004 136.422 326.872 135.427 326.464C135.121 326.339 134.974 325.988 135.1 325.682C135.225 325.375 135.576 325.228 135.882 325.354C136.71 325.693 137.438 325.779 138.086 325.675C138.734 325.571 139.344 325.272 139.924 324.774C141.101 323.762 142.116 321.962 142.965 319.522C144.657 314.658 145.582 307.573 146.054 300.24C146.525 292.922 146.542 285.412 146.441 279.729C146.39 276.888 146.31 274.505 146.243 272.833C146.209 271.997 146.179 271.339 146.157 270.89C146.146 270.665 146.137 270.493 146.131 270.377L146.124 270.246L146.121 270.203C146.121 270.203 146.121 270.203 146.72 270.169L146.121 270.203C146.103 269.872 146.355 269.588 146.686 269.57Z" fill="#6693B9"/>
        <path d="M166.731 97.2141L128.002 98.8067L120.029 99.4437C107.816 105.4 106.078 115.21 101.789 127.824C91.5209 158.083 93.4661 200.031 96.5433 228.029C96.5433 228.029 86.1635 262.668 93.1153 269.898C101.598 278.721 128.002 265.789 140.183 268.098C151.982 270.344 169.074 277.558 189.978 278.1C242.977 279.501 213.001 250.803 212.81 239.766C223.269 220.321 217.864 171.524 203.482 133.414C198.237 119.51 190.424 105.878 177.541 98.8704C174.83 97.3734 168.963 97.2141 166.731 97.2141Z" fill="#BAD2C8"/>
        <path d="M120.269 99.4437C120.269 99.4437 102.427 225.162 107.322 273.035C107.561 275.392 116.617 271.172 116.617 271.172C114.018 232.727 126.774 98.9023 126.774 98.9023L120.269 99.4437Z" fill="#2D458B"/>
        <path d="M175.867 97.8034C175.867 97.8034 190.217 230.481 185.338 278.402C185.099 280.743 176.042 276.539 176.042 276.539C178.641 238.094 169.361 97.2937 169.361 97.2937L175.867 97.8034Z" fill="#2D458B"/>
        <path d="M231.13 193.741C223.828 162.223 193.788 108.41 193.788 108.41L178.561 113.188L183.153 196.161C183.153 196.161 188.112 246.837 202.781 254.052C225.502 265.168 240.633 234.67 231.13 193.741Z" fill="#F9C4B4"/>
        <g style="mix-blend-mode:soft-light" opacity="0.46">
            <path d="M180.491 142.698L207.676 134.735L225.853 176.955L184.126 197.834L180.491 142.698Z" fill="#333333"/>
        </g>
        <path d="M181.957 179.216L229.344 165.042C229.344 165.042 208.027 98.52 175.819 97.8034L178.561 121.692L181.957 179.216Z" fill="#BAD2C8"/>
        <path d="M83.8677 180.251C83.6126 179.471 73.5516 165.679 73.5516 165.679C73.5516 165.679 74.2213 154.229 85.6853 153.958C97.1493 153.687 196.403 151.362 170.892 177.385C145.381 203.408 83.8677 180.251 83.8677 180.251Z" fill="#3F1F1F"/>
        <path d="M168.755 171.062C168.389 164.596 170.509 158.322 172.901 152.254C181.431 130.706 194.314 110.146 213.432 97.023C191.207 116.999 177.661 144.848 175.675 174.646" fill="#698937"/>
        <path d="M172.008 171.874C180.766 146.132 198.013 124.122 220.926 109.445L210.992 120.354C198.683 133.875 185.673 149.021 185.067 167.304" fill="#698937"/>
        <path d="M107.609 202.356C100.771 200.174 94.9339 195.632 91.1438 189.542C87.3538 183.453 85.8581 176.214 86.9249 169.124C87.9916 162.033 91.5511 155.554 96.9655 150.846C102.38 146.138 109.296 143.509 116.474 143.431C120.572 143.431 124.717 144.227 128.751 143.431C134.794 142.3 140.598 137.714 146.465 139.561C148.554 140.214 150.324 141.631 152.365 142.412C157.483 144.37 163.366 142.029 168.628 143.526C173.89 145.023 177.509 150.136 179.996 155.136C182.362 159.614 183.947 164.461 184.684 169.47C186.9 187.641 171.929 204.713 154.198 209.698C136.468 214.683 115.135 208.647 100.29 199.012" fill="#FC9A54"/>
        <path d="M131.031 148.193C128.319 143.311 125.272 138.623 121.911 134.162C121.431 133.536 121.111 132.803 120.977 132.026C120.844 131.249 120.901 130.451 121.144 129.7C121.387 128.95 121.809 128.27 122.373 127.719C122.937 127.167 123.626 126.76 124.382 126.534C124.775 126.419 125.187 126.381 125.594 126.422C127.587 126.581 128.879 128.556 129.74 130.372C132.437 136.109 133.976 142.322 134.268 148.655" fill="#58302F"/>
        <g style="mix-blend-mode:overlay" opacity="0.34">
            <g style="mix-blend-mode:overlay" opacity="0.34">
                <path d="M117.462 200.302C117.016 200.541 114.752 197.658 112.823 192.148C108.948 180.802 109.431 168.424 114.178 157.414C114.948 155.636 115.98 153.982 117.239 152.509C118.365 151.267 119.665 150.194 121.098 149.323C123.099 148.097 125.285 147.199 127.571 146.664C129.166 146.313 130.09 146.313 130.186 146.568C130.282 146.823 129.516 147.365 128.177 148.161C126.296 149.201 124.504 150.394 122.82 151.728C120.47 153.622 118.702 156.139 117.718 158.99C116.378 162.634 115.421 166.408 114.864 170.25C113.892 177.303 114.161 184.471 115.661 191.431C116.761 196.751 118.052 200.015 117.462 200.302Z" fill="#333333"/>
            </g>
            <g style="mix-blend-mode:overlay" opacity="0.34">
                <path d="M148.57 197.674C148.044 197.802 146.8 194.839 146.13 189.711C145.796 187.211 145.588 184.217 145.429 180.952C145.269 177.687 145.11 174.152 144.632 170.553C144.237 167.201 143.429 163.911 142.224 160.758C141.2 158.227 139.809 155.861 138.094 153.735C136.612 151.824 135.32 150.215 134.571 148.957C133.821 147.699 133.566 146.966 133.789 146.791C134.013 146.616 134.682 147.03 135.783 147.89C137.351 149.093 138.857 150.374 140.295 151.728C142.55 153.858 144.394 156.384 145.732 159.182C147.302 162.594 148.324 166.233 148.761 169.963C149.196 173.577 149.366 177.218 149.271 180.857C149.271 184.042 149.128 186.988 149.064 189.504C149 194.505 149.192 197.547 148.57 197.674Z" fill="#333333"/>
            </g>
            <g style="mix-blend-mode:overlay" opacity="0.34">
                <path d="M174.288 201.608C173.714 201.608 172.853 197.133 171.913 189.807C171.45 186.144 170.956 181.844 170.493 176.923C170.226 171.813 169.387 166.749 167.99 161.825C167.207 159.495 165.99 157.333 164.403 155.455C162.896 153.732 161.058 152.329 158.998 151.33C155.298 149.596 151.283 148.632 147.199 148.495C143.627 148.304 140.646 148.495 138.573 148.4C136.5 148.304 135.384 148.272 135.304 147.986C135.224 147.699 136.372 147.285 138.397 146.791C141.293 146.115 144.244 145.705 147.215 145.565C151.808 145.273 156.405 146.058 160.64 147.858C163.232 148.993 165.557 150.659 167.464 152.747C169.463 155.01 170.982 157.654 171.928 160.519C173.454 165.775 174.258 171.213 174.32 176.684C174.575 181.557 174.767 185.937 174.846 189.632C175.038 197.037 174.862 201.56 174.288 201.608Z" fill="#333333"/>
            </g>
            <g style="mix-blend-mode:overlay" opacity="0.34">
                <path d="M129.437 145.74C129.437 146.377 125.435 146.106 119.503 147.46C116.068 148.245 112.753 149.487 109.65 151.155C105.916 152.973 102.755 155.783 100.514 159.277C98.4089 162.972 97.8189 167.415 97.3247 171.476C96.8304 175.537 96.384 179.28 96.0173 182.401C95.3157 188.644 94.662 192.53 94.088 192.498C93.514 192.467 93.1154 188.565 93.0835 182.226C93.0835 179.041 93.1632 175.283 93.514 171.078C93.6479 166.26 94.8227 161.529 96.958 157.207C98.2735 154.968 99.9989 152.996 102.044 151.394C103.871 149.958 105.856 148.734 107.96 147.747C111.475 146.067 115.248 144.99 119.121 144.562C125.626 143.877 129.564 145.262 129.437 145.74Z" fill="#333333"/>
            </g>
        </g>
        <path d="M75.2258 132.06C71.4663 125.97 69.6099 118.899 69.8939 111.75C70.1779 104.602 72.5894 97.6997 76.8202 91.9267C80.4398 105.565 80.5987 119.89 77.2826 133.605" fill="#446815"/>
        <path d="M72.7702 136.169C65.808 131.728 60.1776 125.489 56.4754 118.112C52.7731 110.736 51.1368 102.497 51.7396 94.2678C61.6786 105.445 69.5548 118.295 75.0024 132.219" fill="#698937"/>
        <path d="M70.6816 133.589C66.1877 133.376 61.8516 131.869 58.1963 129.249C54.541 126.63 51.7227 123.009 50.0814 118.825C60.3684 119.756 69.9827 124.332 77.1869 131.725" fill="#446815"/>
        <path d="M74.8271 135.229C70.6873 130.993 67.6293 125.823 65.9115 120.157C64.1937 114.491 63.8664 108.495 64.9575 102.677C72.502 110.215 76.8672 120.354 77.1549 131.009" fill="#88AA4D"/>
        <path d="M74.6676 132.092C70.6815 130.499 66.3606 134.735 66.0736 138.988C65.7866 143.24 68.1304 147.205 70.4583 150.789C80.9497 166.969 92.5891 182.385 104.213 197.786C106.158 197.085 106.046 194.33 105.536 192.323C100.654 172.677 94.0653 153.493 85.8447 134.99C85.2117 133.117 84.0621 131.461 82.5282 130.212C81.7456 129.63 80.7637 129.382 79.7982 129.523C78.8326 129.663 77.9623 130.18 77.3782 130.961" fill="#F78131"/>
        <g opacity="0.36">
            <g style="mix-blend-mode:overlay" opacity="0.36">
                <g style="mix-blend-mode:overlay" opacity="0.36">
                    <path d="M76.5491 143.765C77.0753 144.785 75.7519 146.505 73.5038 147.428C71.2556 148.352 69.1031 148.049 68.7205 146.966C68.3378 145.883 69.8047 144.434 71.9093 143.574C74.014 142.714 76.023 142.746 76.5491 143.765Z" fill="#333333"/>
                </g>
            </g>
            <g style="mix-blend-mode:overlay" opacity="0.36">
                <g style="mix-blend-mode:overlay" opacity="0.36">
                    <path d="M84.3938 151.107C84.2822 149.96 85.6534 148.893 87.3594 148.352C89.0655 147.81 90.8035 147.922 91.3775 148.941C91.9515 149.96 90.7875 151.649 88.6032 152.317C86.4188 152.986 84.4895 152.238 84.3938 151.107Z" fill="#333333"/>
                </g>
            </g>
            <g style="mix-blend-mode:overlay" opacity="0.36">
                <g style="mix-blend-mode:overlay" opacity="0.36">
                    <path d="M88.3002 163.848C88.8104 164.883 87.9972 166.332 86.4825 167.033C84.9678 167.734 83.2936 167.59 82.7834 166.571C82.2732 165.552 83.0704 164.087 84.6011 163.386C86.1318 162.685 87.774 162.829 88.3002 163.848Z" fill="#333333"/>
                </g>
            </g>
            <g style="mix-blend-mode:overlay" opacity="0.36">
                <g style="mix-blend-mode:overlay" opacity="0.36">
                    <path d="M80.0091 129.751C79.9294 130.913 77.6972 131.725 75.2258 132.569C72.7544 133.414 70.4425 134.035 69.6453 133.127C69.2945 132.681 69.4858 131.869 70.2352 130.961C71.2369 129.865 72.5142 129.056 73.9343 128.62C75.3437 128.131 76.8602 128.037 78.319 128.349C79.3235 128.636 80.0091 129.177 80.0091 129.751Z" fill="#333333"/>
                </g>
            </g>
        </g>
        <path d="M80.009 129.751C79.9293 130.913 77.6971 131.725 75.2257 132.569C72.7543 133.414 70.4424 134.035 69.6452 133.127C69.2944 132.681 69.4857 131.869 70.2351 130.961C71.2368 129.865 72.5141 129.056 73.9342 128.62C75.3436 128.131 76.86 128.037 78.3189 128.349C79.3234 128.636 80.009 129.177 80.009 129.751Z" fill="#333333"/>
        <path d="M84.7923 211.992C106.281 218.521 128.766 221.158 151.185 219.779C162.952 219.031 176.138 216.292 182.452 206.067C186.039 200.27 186.661 193.104 187.235 186.24L188.335 171.906C188.479 169.963 188.335 167.463 186.518 166.81C185.906 166.699 185.278 166.714 184.672 166.854C184.066 166.993 183.495 167.255 182.994 167.622C164.004 177.799 141.379 176.636 119.998 175.235C104.053 174.168 88.5233 171.54 73.5356 165.679C73.6313 165.679 69.4538 207.071 84.7923 211.992Z" fill="#58302F"/>
        <path d="M156.016 180.729C158.232 173.547 161.118 166.396 166.141 160.774C171.163 155.152 178.641 151.33 186.119 152.286C194.091 153.305 200.357 159.309 205.077 165.727C212.915 176.399 217.918 188.88 219.618 202.006C220.093 204.558 220.006 207.183 219.363 209.698C219.015 210.951 218.33 212.086 217.383 212.978C216.436 213.871 215.263 214.488 213.99 214.763C209.956 215.32 206.863 211.402 204.694 207.962L193.214 189.791C190.759 185.465 187.723 181.494 184.19 177.99C182.416 176.243 180.306 174.872 177.988 173.961C175.67 173.049 173.191 172.616 170.701 172.687C165.742 173.085 160.911 176.78 160.289 181.701" fill="#446815"/>
        <g style="mix-blend-mode:overlay">
            <g style="mix-blend-mode:overlay">
                <path d="M211.933 196.257C211.71 196.4 209.254 192.849 205.444 187.004C203.53 184.042 201.298 180.634 198.827 176.7C196.324 172.496 193.039 168.809 189.148 165.839C187.255 164.397 185.059 163.403 182.725 162.932C180.391 162.46 177.981 162.523 175.675 163.115C171.931 164.437 168.57 166.658 165.886 169.581C161.102 174.47 159.045 178.388 158.758 178.213C158.98 177.205 159.403 176.251 160.002 175.41C161.381 172.982 163.028 170.717 164.913 168.657C167.649 165.413 171.182 162.932 175.165 161.459C177.619 160.677 180.233 160.54 182.755 161.061C185.419 161.617 187.946 162.7 190.185 164.246C194.283 167.346 197.706 171.248 200.246 175.713C202.685 179.662 204.774 183.245 206.623 186.255C210.099 192.259 212.156 196.129 211.933 196.257Z" fill="#333333"/>
            </g>
            <g style="mix-blend-mode:overlay">
                <path d="M190.568 181.111C190.328 180.968 190.775 179.885 190.95 178.101C191.156 175.767 190.834 173.416 190.009 171.221C189.122 169.015 188.056 166.884 186.821 164.851C185.864 163.259 185.338 162.128 185.561 161.969C185.784 161.809 186.661 162.606 187.905 164.087C189.581 166.035 190.912 168.254 191.843 170.648C192.8 173.127 192.973 175.84 192.337 178.42C191.7 180.267 190.759 181.191 190.568 181.111Z" fill="#333333"/>
            </g>
            <g style="mix-blend-mode:overlay">
                <path d="M199.783 191.734C199.257 191.734 199.177 188.071 199.162 183.66C199.146 179.248 199.161 175.697 199.751 175.601C200.341 175.505 201.043 179.153 201.043 183.66C201.043 188.167 200.294 191.782 199.783 191.734Z" fill="#333333"/>
            </g>
            <g style="mix-blend-mode:overlay">
                <path d="M199.688 162.414C199.688 162.94 196.77 163.322 193.198 163.45C189.627 163.577 186.693 163.45 186.645 162.876C186.597 162.303 189.499 161.698 193.135 161.57C196.77 161.443 199.704 161.905 199.688 162.414Z" fill="#333333"/>
            </g>
            <g style="mix-blend-mode:overlay">
                <path d="M208.298 176.334C208.298 176.843 206.145 177.226 203.642 176.445C201.139 175.665 199.576 174.12 199.879 173.706C200.182 173.292 201.984 173.961 204.2 174.646C206.416 175.33 208.314 175.728 208.298 176.334Z" fill="#333333"/>
            </g>
        </g>
        <path d="M153.688 175.665C153.688 175.665 166.157 174.072 169.856 172.91L169.011 184.87L152.444 185.65L153.688 175.665Z" fill="#58302F"/>
        <path d="M221.181 218.075C216.573 215.193 171.115 205.335 148.458 200.557C145.078 210.112 141.512 219.572 137.76 228.937C163.191 241.932 195.877 255.358 210.801 255.676C228.818 255.963 233.49 225.433 221.181 218.075Z" fill="#F9C4B4"/>
        <path fill-rule="evenodd" clip-rule="evenodd" d="M183.57 208.336C183.627 208.038 183.915 207.843 184.214 207.9L204.878 211.866C205.176 211.923 205.371 212.211 205.314 212.509C205.257 212.808 204.969 213.003 204.67 212.946L184.006 208.98C183.708 208.923 183.513 208.635 183.57 208.336Z" fill="#333333"/>
        <path d="M158.519 201.003C146.194 198.359 135.224 196.225 135.224 196.225C134.666 195.126 127.81 182.226 124.462 180.873C119.264 178.754 121.464 191.638 123.569 193.613C121.385 192.021 102.841 181.318 100.226 183.261C98.2653 184.727 110.798 194.839 110.798 194.839C110.798 194.839 92.047 186.733 91.2179 188.724C90.3888 190.715 107.736 199.554 107.736 199.554C107.736 199.554 92.7645 195.158 91.9832 197.483C91.3295 199.474 105.871 205.844 105.871 205.844C105.871 205.844 95.3315 205.605 94.7097 207.628C94.0879 209.65 110 213.536 113.11 214.747C121.528 220.146 134.778 231.119 147.948 237.409C148.203 236.852 155.888 211.052 158.519 201.003Z" fill="#FC9B27"/>
        <path d="M158.519 201.003C158.519 201.003 160.48 200.461 160.656 201.353C160.831 202.245 151.089 238.317 149.272 237.983L147.502 237.616L158.519 201.003Z" fill="#FCB970"/>
    </g>
    <defs>
        <clipPath id="clip0_107_1123">
            <rect width="273" height="627" fill="white" transform="translate(0 -20)"/>
        </clipPath>
    </defs>
</svg>
