<svg xmlns="http://www.w3.org/2000/svg" xmlns:xlink="http://www.w3.org/1999/xlink"><symbol id="icon-close" viewBox="0 0 20 20"><path d="M.293 18.291a1 1 0 1 0 1.414 1.414L10 11.413l8.292 8.292a1 1 0 1 0 1.414-1.414l-8.292-8.292 8.292-8.292A1 1 0 1 0 18.291.293L9.999 8.585 1.707.293A1 1 0 1 0 .293 1.707L8.585 10 .293 18.291z"/></symbol><symbol id="sm-facebook" viewBox="0 0 24 24"><g fill="currentcolor"><path d="M15.538 5.187H17.4V1.943c-.321-.044-1.426-.143-2.713-.143-2.685 0-4.524 1.689-4.524 4.793V9.45H7.2v3.626h2.963V22.2h3.633v-9.123h2.843l.45-3.626h-3.294V6.953c0-1.049.283-1.766 1.743-1.766Z"/></g></symbol><symbol id="sm-instagram" viewBox="0 0 24 24"><g fill="currentcolor"><path d="M12 8.4A3.604 3.604 0 0 0 8.4 12c0 1.985 1.615 3.6 3.6 3.6s3.6-1.615 3.6-3.6-1.615-3.6-3.6-3.6Z" fill="#000"/><path fill-rule="evenodd" clip-rule="evenodd" d="M2.4 17.61V6.39A3.99 3.99 0 0 1 6.39 2.4h11.22a3.99 3.99 0 0 1 3.99 3.99v11.22a3.99 3.99 0 0 1-3.99 3.99H6.39a3.99 3.99 0 0 1-3.99-3.99Zm4.16-7.644a5.823 5.823 0 0 0 7.474 7.474 5.508 5.508 0 0 0 3.406-3.406A5.823 5.823 0 0 0 9.966 6.56 5.508 5.508 0 0 0 6.56 9.966ZM18 6.6a1.2 1.2 0 1 0 0-2.4 1.2 1.2 0 0 0 0 2.4Z"/></g></symbol><symbol id="sm-twitter" viewBox="0 0 24 24"><g fill="currentcolor"><path d="M23.077 5.13a9.47 9.47 0 0 1-2.617.718 4.516 4.516 0 0 0 1.998-2.51 9.076 9.076 0 0 1-2.88 1.1 4.54 4.54 0 0 0-7.856 3.106c0 .359.03.705.105 1.035C8.05 8.394 4.71 6.585 2.466 3.828a4.573 4.573 0 0 0-.622 2.296c0 1.573.81 2.967 2.017 3.774a4.485 4.485 0 0 1-2.052-.56v.05a4.563 4.563 0 0 0 3.639 4.463c-.37.101-.773.15-1.19.15-.291 0-.585-.017-.86-.078.588 1.799 2.258 3.121 4.243 3.164a9.125 9.125 0 0 1-5.63 1.937c-.373 0-.73-.017-1.088-.062A12.787 12.787 0 0 0 7.89 21c8.358 0 12.927-6.923 12.927-12.924 0-.2-.007-.395-.017-.587a9.061 9.061 0 0 0 2.277-2.358Z"/></g></symbol></svg>