<svg xmlns="http://www.w3.org/2000/svg" xmlns:xlink="http://www.w3.org/1999/xlink"><symbol id="edit"><g fill="none"><path d="M11 4H4a2 2 0 0 0-2 2v14a2 2 0 0 0 2 2h14a2 2 0 0 0 2-2v-7" stroke="#252525" stroke-width="2" stroke-linecap="round" stroke-linejoin="round"/><path d="M18.5 2.5a2.121 2.121 0 1 1 3 3L12 15l-4 1 1-4 9.5-9.5Z" stroke="#252525" stroke-width="2" stroke-linecap="round" stroke-linejoin="round"/></g></symbol><symbol id="home"><g fill="none"><path d="m3 9 9-7 9 7v11a2 2 0 0 1-2 2H5a2 2 0 0 1-2-2V9Z" stroke="#252525" stroke-width="2" stroke-linecap="round" stroke-linejoin="round"/><path d="M9 22V12h6v10" stroke="#252525" stroke-width="2" stroke-linecap="round" stroke-linejoin="round"/></g></symbol><symbol id="icon-close" viewBox="0 0 20 20"><path d="M.293 18.291a1 1 0 1 0 1.414 1.414L10 11.413l8.292 8.292a1 1 0 1 0 1.414-1.414l-8.292-8.292 8.292-8.292A1 1 0 1 0 18.291.293L9.999 8.585 1.707.293A1 1 0 1 0 .293 1.707L8.585 10 .293 18.291z"/></symbol><symbol id="star"><g fill="none"><path d="m12 2 3.09 6.26L22 9.27l-5 4.87 1.18 6.88L12 17.77l-6.18 3.25L7 14.14 2 9.27l6.91-1.01L12 2Z" stroke="#252525" stroke-width="2" stroke-linecap="round" stroke-linejoin="round"/></g></symbol><symbol id="tool"><g fill="none"><path d="M14.7 6.3a1 1 0 0 0 0 1.4l1.6 1.6a1 1 0 0 0 1.4 0l3.77-3.77a6 6 0 0 1-7.94 7.94l-6.91 6.91a2.121 2.121 0 0 1-3-3l6.91-6.91a6 6 0 0 1 7.94-7.94l-3.76 3.76-.01.01Z" stroke="#000" stroke-width="2" stroke-linecap="round" stroke-linejoin="round"/></g></symbol></svg>